<svg width="20" height="20" viewBox="0 0 20 20" fill="none" xmlns="http://www.w3.org/2000/svg">
  <g transform="rotate(180 10 10)">
    <path fill-rule="evenodd" clip-rule="evenodd" d="M11.0768 3.57806C11.4022 3.25263 11.9298 3.25263 12.2553 3.57806L18.0886 9.4114C18.2449 9.56768 18.3327 9.77964 18.3327 10.0007C18.3327 10.2217 18.2449 10.4336 18.0886 10.5899L12.2553 16.4232C11.9298 16.7487 11.4022 16.7487 11.0768 16.4232C10.7513 16.0978 10.7513 15.5702 11.0768 15.2447L15.4875 10.834L2.49935 10.834C2.03911 10.834 1.66602 10.4609 1.66602 10.0007C1.66602 9.54041 2.03911 9.16732 2.49935 9.16732L15.4875 9.16732L11.0768 4.75657C10.7513 4.43114 10.7513 3.9035 11.0768 3.57806Z" fill="#98A1A4"/>
  </g>
</svg>
